<svg xmlns="http://www.w3.org/2000/svg" xmlns:xlink="http://www.w3.org/1999/xlink" width="94" height="94" viewBox="0 0 94 94"><defs><clipPath id="b"><rect width="94" height="94"/></clipPath></defs><g id="a" clip-path="url(#b)"><g fill="none" stroke="#52af41" stroke-width="3"><rect width="94" height="94" rx="10" stroke="none"/><rect x="1.5" y="1.5" width="91" height="91" rx="8.5" fill="none"/></g><g transform="translate(23.001 20.008)"><circle cx="5" cy="5" r="5" transform="translate(36 14)" fill="#fff"/><path d="M44.248,25.016a2,2,0,0,0-2.232,1.736l-.474,3.791L30.1,18.434l3.178-.455a2,2,0,1,0-.566-3.958l-7,1a2,2,0,0,0-1.171,3.352l4.537,4.8-10.23,5.115L13.445,24.46a2.5,2.5,0,0,0-2.713-.115l-8.5,5a2.5,2.5,0,0,0,2.536,4.31l7.106-4.18,7.782,5.513a4.5,4.5,0,0,0,4.857.537l11.026-5.513,6.007,6.361A2,2,0,0,0,43,37a1.965,1.965,0,0,0,.622-.1,2,2,0,0,0,1.362-1.652l1-8A2,2,0,0,0,44.248,25.016Z" fill="#fff"/><path d="M4.946,25.428l4.776-2.809a4.5,4.5,0,0,1,4.88.209l3.86,2.735-3.245-6.219a2.5,2.5,0,0,0-3.008-1.216l-7.5,2.5a2.493,2.493,0,0,0,.237,4.8Z" fill="#fff"/></g></g></svg>