<svg xmlns="http://www.w3.org/2000/svg" xmlns:xlink="http://www.w3.org/1999/xlink" width="94" height="94" viewBox="0 0 94 94"><defs><clipPath id="b"><rect width="94" height="94"/></clipPath></defs><g id="a" clip-path="url(#b)"><g fill="none" stroke="#52af41" stroke-width="3"><rect width="94" height="94" rx="10" stroke="none"/><rect x="1.5" y="1.5" width="91" height="91" rx="8.5" fill="none"/></g><g transform="translate(23 22)"><path d="M37.291,12.128a2.5,2.5,0,0,0-3.163,1.581L28.7,30H19.3L13.87,13.709a2.5,2.5,0,0,0-4.744,1.582L15,32.907V46a1,1,0,0,0,1,1H32a1,1,0,0,0,1-1V32.907l5.872-17.616A2.5,2.5,0,0,0,37.291,12.128Z" fill="#fff"/><circle cx="5" cy="5" r="5" transform="translate(19 18)" fill="#fff"/><path d="M46,8H45V2.5a1.5,1.5,0,1,0-3,0V8H6V2.5a1.5,1.5,0,1,0-3,0V8H2a1,1,0,0,0,0,2H3v5.5a1.5,1.5,0,0,0,3,0V10H42v5.5a1.5,1.5,0,0,0,3,0V10h1a1,1,0,0,0,0-2Z" fill="#fff"/></g></g></svg>